<?xml version="1.0" encoding="UTF-8" standalone="no"?>
<!DOCTYPE svg PUBLIC "-//W3C//DTD SVG 1.1//EN" "http://www.w3.org/Graphics/SVG/1.1/DTD/svg11.dtd">
<svg width="100%" height="100%" viewBox="0 0 1080 1080" version="1.1" xmlns="http://www.w3.org/2000/svg" xmlns:xlink="http://www.w3.org/1999/xlink" xml:space="preserve" xmlns:serif="http://www.serif.com/" style="fill-rule:evenodd;clip-rule:evenodd;stroke-linejoin:round;stroke-miterlimit:2;">
    <g transform="matrix(1,0,0,1,-420.115,0.942312)">
        <path d="M738.5,928.9C731.4,928.5 720.3,928.2 714,928.1C702.6,928 697.2,927.1 675,921.4C657.8,917 651.6,914.8 640,909C619.7,899 603.1,884.8 590.9,867.2C586,860.2 575.1,837.2 575,833.9C575,833 574.4,830.7 573.6,828.9C569.4,818.7 569.3,815.9 569.6,561.5C569.9,318.7 570.4,285.5 573.5,275.6C574.3,272.9 575,268.6 575,266.1C575,263.6 575.9,258.4 576.9,254.5C578,250.7 580.1,242.8 581.6,237C583.2,231.2 586.4,222.5 588.7,217.7C591.1,212.9 593,208.7 593,208.3C593,208 595.5,204.1 598.6,199.6C605.6,189.5 615.8,178.9 623,174.3C637.5,164.8 647,159.9 655.1,157.6C679.8,150.7 681.2,150.4 700.6,149C718.5,147.7 744.4,149.1 755.5,151.9C759.4,152.9 764.4,154 766.8,154.4C769.1,154.7 775.2,156.8 780.3,159C785.3,161.2 790.1,163 790.8,163C791.6,163 793.4,163.7 794.8,164.5C796.3,165.3 800.3,167.1 803.8,168.5C818.6,174.5 862.1,200.6 883.9,216.5C894.7,224.4 912.9,238.5 920,244.5C923.6,247.6 928.8,251.9 931.5,254.1C936.5,258.2 940.8,262.1 955,275.4C959.1,279.3 963.9,283.6 965.5,284.9C967.2,286.2 976.6,295.3 986.6,305.1C1004.2,322.5 1004.8,323 1008.9,323C1012.1,323 1013,322.6 1013,321.3C1013,320.3 1013.1,306.2 1013.3,290C1013.7,261.7 1013.8,260.1 1016.4,250C1019.9,236.4 1022.2,230.3 1027.2,220.5C1033.3,208.6 1040,199.3 1048.2,191.4C1060.3,179.7 1068,174.5 1085.5,165.8C1093.6,161.7 1116.7,154 1120.6,154C1122,154 1125.8,153.4 1128.9,152.6C1150.2,147.2 1203,146.9 1230,152.1C1242,154.4 1257,158.3 1264.8,161.1C1280.6,166.8 1301.4,180.6 1314.2,193.8C1335.7,215.9 1347.2,242.7 1350,277.2C1351.4,293.9 1350.6,784.2 1349.2,797C1343.3,849.9 1328.5,882.4 1300.4,903.5C1292.3,909.6 1276.2,917.7 1266.5,920.5C1238.1,928.8 1219,930.9 1190.5,929.2C1180.6,928.6 1169.4,927.3 1165.5,926.4C1143.7,921.3 1132.7,918.3 1125.6,915.3C1121.2,913.5 1117.1,912 1116.4,912C1115.8,912 1114.7,911.4 1114.1,910.6C1113.4,909.8 1111.7,908.9 1110.2,908.5C1103.6,906.9 1074.2,890.4 1052.5,876.1C1034.1,864 1000.4,838.8 989.2,828.8C985,825 978.4,819.3 974.5,816.2C966.2,809.5 931.9,776.2 924.1,767.2C921.1,763.7 916.9,760 914.7,758.8C910.8,756.9 910.7,756.9 908.8,758.7C907.1,760.5 906.9,762.8 906.5,787.6C906.3,803.1 905.7,815.8 905,817.4C904.5,818.9 903.3,823.4 902.5,827.4C899.4,842.6 889.7,863.1 879.9,875.6C866.2,893 841.4,910.6 822,916.7C797.3,924.5 786.7,926.8 768.5,928.1C761.9,928.6 755.4,929.1 754,929.2C752.6,929.4 745.7,929.2 738.5,928.9ZM772.5,856.1C775.8,855.5 780.3,854.8 782.5,854.5C786.7,853.8 797.7,850.4 804.5,847.5C810.9,844.8 822.6,835.3 825.8,830.2C829.9,823.7 832.9,816.9 834,811.2C834.5,808.6 835.4,804.7 836,802.5C836.6,800.1 837,774.2 837,737.4C837,669.2 837.1,670.3 830.2,662.1C810.2,638.3 769,585.2 755.5,565.6C752.8,561.7 749.2,556.8 747.7,554.8C739.5,544.1 723.8,513.9 722.5,506.1C722.1,503.7 721.2,500.3 720.5,498.6C719.8,496.9 718.7,490 718,483.2C714.2,444.8 728.5,412.7 758.5,392.6C771.4,383.9 779.8,380.4 793,378.3C807.6,376 818.4,376 828.5,378.3C862.2,385.8 887.6,409.8 898.9,445C903.2,458.6 905.2,468.8 906,482.5C906.5,489.1 906.9,527.5 906.9,567.8C907,651.2 906.2,643.7 916,654.3C918.7,657.3 922,661 923.2,662.6C924.4,664.2 930.2,670.7 936,677C941.8,683.4 952,694.7 958.8,702.2C965.5,709.6 981.5,726.1 994.3,738.7C1016.9,760.9 1023.9,767.1 1055.9,793C1064.2,799.7 1083.9,813.7 1097,822C1116,834.2 1141.7,846.1 1160.1,851.4C1177.4,856.3 1185.2,857.2 1205,856.7C1228,856.1 1238.4,854.7 1248,850.7C1265.7,843.3 1272.5,829.3 1277.2,790.5L1279.5,771.5L1279.5,279.5L1276.8,270.3C1273.1,257.5 1269.9,252.2 1260.4,243C1244.8,228.1 1227.2,222.3 1190.3,220C1173.1,218.9 1160.6,219.5 1151,222C1149.1,222.5 1144.8,223.2 1141.5,223.6C1138.2,224 1133.1,225.1 1130.1,226.1C1127.1,227.2 1124.1,228 1123.4,228C1120.9,228 1106.9,235.2 1102.1,239C1095.2,244.5 1088.2,255.4 1085.7,264.8C1083.7,272.3 1083.7,274.6 1083.9,340.4C1084.1,416.5 1083.5,410.3 1091.9,419.4C1098,426 1118.3,451.1 1131.2,468C1135.1,473.2 1140.3,479.8 1142.6,482.5C1144.9,485.3 1151.4,494 1157,502C1162.7,510 1169,518.5 1171,521C1178.4,530.2 1191.3,553.6 1195.3,565C1202.2,585 1203.7,613.6 1198.8,630.5C1196.5,638.3 1188.2,655.7 1184.2,661C1179.7,667.1 1164.2,681.8 1159.4,684.6C1152.9,688.4 1141.9,692.8 1131.5,695.7C1118.3,699.4 1103,699.1 1088.1,694.9C1075.6,691.3 1065.3,686.7 1059,681.9C1056.5,680 1053.4,677.7 1052,676.8C1046.7,673.3 1034,659.9 1034,657.7C1034,657.4 1032.2,654.3 1030.1,650.8C1025.1,642.9 1018,625.2 1016.9,618C1016.5,615 1015.6,610.9 1014.9,609C1014.1,606.5 1013.6,583 1013.3,523C1012.7,430.1 1013.5,438.4 1004.5,428.8C1001.7,425.9 994.8,418.3 989,412C975.3,396.9 904.9,326.6 898.5,321.5C895.8,319.3 890.6,314.8 887,311.4C870.4,295.8 832.5,266.5 813,254.4C808.9,251.8 803.6,248.4 801.4,246.9C799.1,245.3 790.6,240.7 782.4,236.7C768.2,229.6 759.1,226.2 747,223.5C744,222.8 738.6,221.4 735,220.5C729.6,219 725.9,218.8 713,219.3C704.5,219.6 695,220.5 692,221.3C689,222.1 684.7,223.1 682.4,223.5C674.5,224.7 662.2,234 656.5,243C650.5,252.5 646.8,265.5 644.4,285.5C643.7,292.1 642.5,300.2 641.9,303.5C641,308 640.6,372.8 640.3,555.9C639.9,801.2 640,802.4 642,810.4C644.7,821.1 648.2,827.9 654.4,834.2C667.5,847.5 684.2,853.7 715.5,856.9C724.4,857.8 765.6,857.2 772.5,856.1ZM1120.6,622.9C1129.8,618.2 1133.1,606.4 1129,592.9C1125.3,580.7 1121.7,574.2 1106.3,552.7C1102,546.7 1097.6,540.5 1096.5,538.9C1095.4,537.4 1092.6,535.1 1090.3,533.9C1083.1,530.2 1083.1,530.2 1083.1,560.3C1083.1,584.6 1083.3,587.3 1085.6,598C1087,604.3 1089.2,611.4 1090.6,613.7C1093.3,618.4 1100.2,624.7 1103.4,625.4C1108.1,626.4 1116,625.3 1120.6,622.9ZM835.1,545C836.9,544 837,542.7 837,524.7C836.9,506.1 836.2,494.8 834.1,477C832.8,466.7 828.4,457.2 822.7,452.6C819.3,449.9 817.9,449.5 811.7,449.2C805.1,448.9 804.1,449.1 799.8,451.9C793.5,455.9 788.6,465.1 788.7,472.6C788.8,484 796.8,501.3 811,520.5C814.6,525.5 819.7,532.5 822.3,536.2C825,539.9 828.3,543.6 829.8,544.5C833.1,546.2 832.7,546.2 835.1,545Z" style="fill:rgb(234,130,177);fill-rule:nonzero;"/>
    </g>
</svg>
